<?xml version="1.0" encoding="utf-8"?>
<svg width="24px" height="23px" viewbox="0 0 24 23" version="1.1" xmlns:xlink="http://www.w3.org/1999/xlink" xmlns="http://www.w3.org/2000/svg">
  <path d="M2.63478 20.3478C3.78548 19.1301 6.53791 17.7738 8.838 16.9722L11.3241 19.0865C11.7138 19.4181 12.2864 19.4181 12.6762 19.0865L15.1623 16.9722C17.4623 17.7738 20.2148 19.1301 21.3655 20.3478L2.63478 20.3478ZM15.252 14.802C14.9087 14.6919 14.5333 14.7676 14.2589 15.001L12 16.9218L9.74139 15.001C9.46696 14.7676 9.09157 14.6919 8.74826 14.802C7.28739 15.2679 0 17.7759 0 21.3913C0 21.9676 0.467217 22.4348 1.04348 22.4348L22.9565 22.4348C23.5328 22.4348 24 21.9676 24 21.3913C24 17.7759 16.7126 15.2679 15.252 14.802L15.252 14.802ZM12 2.08696C14.7224 2.08696 16.9372 4.31557 16.9372 7.05522C16.9372 9.79539 14.7224 12.0245 12 12.0245C9.27783 12.0245 7.06304 9.79539 7.06304 7.05522C7.06304 4.31557 9.27783 2.08696 12 2.08696L12 2.08696ZM12 14.1115C15.8731 14.1115 19.0242 10.9461 19.0242 7.05522C19.0242 3.16487 15.8731 0 12 0C8.12713 0 4.97609 3.16487 4.97609 7.05522C4.97609 10.9461 8.12713 14.1115 12 14.1115L12 14.1115Z" id="user" fill="#BFC5D1" fill-rule="evenodd" stroke="none" />
</svg>