<?xml version="1.0" encoding="utf-8"?>
<svg width="100px" height="100px" viewbox="0 0 100 100" version="1.1" xmlns:xlink="http://www.w3.org/1999/xlink" xmlns="http://www.w3.org/2000/svg">
  <defs>
    <filter filterUnits="userSpaceOnUse" color-interpolation-filters="sRGB" id="filter_1">
      <feFlood flood-opacity="0" result="BackgroundImageFix" />
      <feColorMatrix in="SourceAlpha" type="matrix" values="0 0 0 0 0 0 0 0 0 0 0 0 0 0 0 0 0 0 127 0" />
      <feOffset dx="0" dy="10" />
      <feGaussianBlur stdDeviation="10" />
      <feColorMatrix type="matrix" values="0 0 0 0 0.3137255 0 0 0 0 0.48235294 0 0 0 0 0.9882353 0 0 0 0.5019608 0" />
      <feBlend mode="normal" in2="BackgroundImageFix" result="effect0_dropShadow" />
      <feBlend mode="normal" in="SourceGraphic" in2="effect0_dropShadow" result="shape" />
    </filter>
  </defs>
  <path d="M2.999 0L37.001 0Q37.1483 0 37.295 0.014441Q37.4416 0.028882 37.5861 0.0576249Q37.7306 0.0863679 37.8716 0.129136Q38.0126 0.171904 38.1487 0.228285Q38.2848 0.284667 38.4147 0.354118Q38.5447 0.42357 38.6672 0.505423Q38.7897 0.587276 38.9035 0.680742Q39.0174 0.774208 39.1216 0.878387Q39.2258 0.982566 39.3193 1.09645Q39.4127 1.21034 39.4946 1.33284Q39.5764 1.45535 39.6459 1.58528Q39.7153 1.71522 39.7717 1.85133Q39.8281 1.98745 39.8709 2.12844Q39.9136 2.26942 39.9424 2.41392Q39.9711 2.55842 39.9856 2.70505Q40 2.85167 40 2.999L40 37.001Q40 37.1483 39.9856 37.295Q39.9711 37.4416 39.9424 37.5861Q39.9136 37.7306 39.8709 37.8716Q39.8281 38.0126 39.7717 38.1487Q39.7153 38.2848 39.6459 38.4147Q39.5764 38.5447 39.4946 38.6672Q39.4127 38.7897 39.3193 38.9035Q39.2258 39.0174 39.1216 39.1216Q39.0174 39.2258 38.9035 39.3193Q38.7897 39.4127 38.6672 39.4946Q38.5447 39.5764 38.4147 39.6459Q38.2848 39.7153 38.1487 39.7717Q38.0126 39.8281 37.8716 39.8709Q37.7306 39.9136 37.5861 39.9424Q37.4416 39.9711 37.295 39.9856Q37.1483 40 37.001 40L2.999 40Q2.85167 40 2.70505 39.9856Q2.55842 39.9711 2.41392 39.9424Q2.26942 39.9136 2.12844 39.8709Q1.98745 39.8281 1.85133 39.7717Q1.71522 39.7153 1.58528 39.6459Q1.45535 39.5764 1.33284 39.4946Q1.21034 39.4127 1.09645 39.3193Q0.982566 39.2258 0.878387 39.1216Q0.774208 39.0174 0.680742 38.9035Q0.587276 38.7897 0.505423 38.6672Q0.42357 38.5447 0.354118 38.4147Q0.284667 38.2848 0.228285 38.1487Q0.171904 38.0126 0.129136 37.8716Q0.0863679 37.7306 0.0576249 37.5861Q0.028882 37.4416 0.014441 37.295Q0 37.1483 0 37.001L0 2.999Q0 2.85167 0.014441 2.70505Q0.028882 2.55842 0.0576249 2.41392Q0.0863679 2.26942 0.129136 2.12844Q0.171904 1.98745 0.228285 1.85133Q0.284667 1.71522 0.354118 1.58528Q0.42357 1.45535 0.505423 1.33284Q0.587276 1.21034 0.680742 1.09645Q0.774208 0.982566 0.878387 0.878387Q0.982566 0.774208 1.09645 0.680742Q1.21034 0.587276 1.33284 0.505423Q1.45535 0.42357 1.58528 0.354118Q1.71522 0.284667 1.85133 0.228285Q1.98745 0.171904 2.12844 0.129136Q2.26942 0.0863679 2.41392 0.0576249Q2.55842 0.028882 2.70505 0.014441Q2.85167 0 2.999 0L2.999 0Z" transform="translate(30 20)" id="Rectangle-2-Copy-5" fill="#507BFC" fill-rule="evenodd" stroke="none" filter="url(#filter_1)" />
</svg>